<svg width="27" height="27" viewBox="0 0 27 27" fill="none" xmlns="http://www.w3.org/2000/svg">
<path fill-rule="evenodd" clip-rule="evenodd" d="M13.4931 6.19254C9.29663 6.19254 5.89766 9.57498 5.89766 13.7511C5.89766 17.0957 8.07186 19.9207 11.0911 20.9222C11.4708 20.9884 11.6132 20.7616 11.6132 20.5632C11.6132 20.3837 11.6037 19.7885 11.6037 19.1554C9.69539 19.505 9.20168 18.6925 9.04977 18.2673C8.96432 18.05 8.59405 17.3792 8.27124 17.1997C8.0054 17.0579 7.62562 16.7084 8.26174 16.6989C8.85989 16.6895 9.28713 17.2469 9.42955 17.4737C10.1131 18.6169 11.205 18.2956 11.6417 18.0972C11.7082 17.6059 11.9076 17.2752 12.1259 17.0863C10.4359 16.8973 8.67 16.2454 8.67 13.3542C8.67 12.5323 8.96432 11.852 9.44854 11.3229C9.37258 11.1339 9.10674 10.3592 9.52449 9.31988C9.52449 9.31988 10.1606 9.12147 11.6132 10.0946C12.2209 9.92456 12.8665 9.83953 13.5121 9.83953C14.1577 9.83953 14.8033 9.92456 15.411 10.0946C16.8636 9.11202 17.4997 9.31988 17.4997 9.31988C17.9175 10.3592 17.6516 11.1339 17.5757 11.3229C18.0599 11.852 18.3542 12.5228 18.3542 13.3542C18.3542 16.2548 16.5788 16.8973 14.8888 17.0863C15.1641 17.3225 15.4015 17.776 15.4015 18.4846C15.4015 19.4956 15.392 20.3081 15.392 20.5632C15.392 20.7616 15.5344 20.9978 15.9142 20.9222C18.9144 19.9207 21.0886 17.0863 21.0886 13.7511C21.0886 9.57498 17.6896 6.19254 13.4931 6.19254Z" fill="#1B1F23"/>
</svg>